<?xml version="1.0" standalone="no"?>
<!DOCTYPE svg PUBLIC "-//W3C//DTD SVG 20010904//EN"
 "http://www.w3.org/TR/2001/REC-SVG-20010904/DTD/svg10.dtd">
<svg version="1.0" xmlns="http://www.w3.org/2000/svg"
 width="400.000000pt" height="400.000000pt" viewBox="0 0 400.000000 400.000000"
 preserveAspectRatio="xMidYMid meet">
<metadata>
Created by potrace 1.11, written by Peter Selinger 2001-2013
</metadata>
<g transform="translate(0.000000,400.000000) scale(0.100000,-0.100000)"
fill="#000000" stroke="none">
<path d="M2168 2691 c-47 -15 -90 -52 -109 -95 -23 -52 -23 -90 0 -142 59
-129 237 -135 308 -9 28 49 29 90 4 149 -32 74 -129 120 -203 97z m2 -97 c-28
-32 -31 -42 -28 -83 3 -25 8 -55 12 -66 5 -14 -1 -10 -18 10 -43 50 -30 130
25 161 40 22 43 16 9 -22z"/>
<path d="M1717 2328 c-40 -66 -87 -161 -87 -177 0 -21 22 -33 43 -25 8 3 27
32 42 64 16 33 32 60 36 60 4 0 13 -17 20 -37 7 -21 22 -54 34 -73 12 -19 47
-82 77 -140 30 -58 74 -140 97 -182 22 -43 58 -111 79 -150 22 -40 64 -121 95
-179 32 -58 57 -109 57 -113 0 -3 -210 -6 -466 -6 l-466 0 68 128 c38 70 90
168 116 217 114 211 115 215 95 230 -25 18 -40 11 -60 -28 -9 -18 -51 -97 -94
-177 -43 -80 -105 -196 -138 -258 l-60 -112 -164 -2 c-140 -3 -165 -5 -174
-20 -8 -12 -7 -21 2 -32 12 -14 113 -16 1007 -16 971 0 994 0 1004 19 14 27
-12 51 -54 51 -39 0 -42 2 -93 100 -22 41 -84 158 -138 260 -54 102 -125 235
-156 295 -61 116 -78 136 -101 118 -7 -7 -60 -102 -118 -212 -58 -110 -108
-201 -112 -201 -3 0 -13 12 -21 28 -28 54 -120 228 -137 257 -10 17 -50 93
-90 170 -40 77 -77 146 -83 153 -15 19 -45 14 -60 -10z m743 -463 c29 -55 67
-127 85 -160 66 -122 139 -261 156 -295 l17 -35 -201 -3 c-111 -1 -206 -1
-213 2 -6 2 -24 30 -41 63 -32 63 -80 149 -108 199 l-18 30 50 95 c28 52 76
143 108 203 l58 108 27 -53 c15 -30 51 -99 80 -154z"/>
<path d="M1583 2078 c-5 -7 -14 -25 -20 -40 -14 -32 4 -65 31 -55 21 8 51 71
43 91 -8 19 -41 21 -54 4z"/>
<path d="M2923 1363 c-19 -7 -16 -50 4 -57 24 -10 51 20 37 41 -12 19 -23 24
-41 16z"/>
<path d="M2999 1354 c-25 -30 1 -49 66 -49 43 0 60 4 68 17 19 29 -8 48 -68
48 -36 0 -57 -5 -66 -16z"/>
</g>
</svg>
